<svg aria-hidden="true" style="position: absolute; width: 0; height: 0; overflow: hidden;" version="1.1" xmlns="http://www.w3.org/2000/svg" xmlns:xlink="http://www.w3.org/1999/xlink">
<defs>
<symbol id="icon-search" viewBox="0 0 30 32">
<title>search</title>
<path d="M20.571 14.857c0-4.411-3.589-8-8-8s-8 3.589-8 8 3.589 8 8 8 8-3.589 8-8zM29.714 29.714c0 1.25-1.036 2.286-2.286 2.286-0.607 0-1.196-0.25-1.607-0.679l-6.125-6.107c-2.089 1.446-4.589 2.214-7.125 2.214-6.946 0-12.571-5.625-12.571-12.571s5.625-12.571 12.571-12.571 12.571 5.625 12.571 12.571c0 2.536-0.768 5.036-2.214 7.125l6.125 6.125c0.411 0.411 0.661 1 0.661 1.607z"></path>
</symbol>
<symbol id="icon-add" viewBox="0 0 27 32">
<title>add</title>
<path d="M21.714 17.143v-2.286c0-0.625-0.518-1.143-1.143-1.143h-4.571v-4.571c0-0.625-0.518-1.143-1.143-1.143h-2.286c-0.625 0-1.143 0.518-1.143 1.143v4.571h-4.571c-0.625 0-1.143 0.518-1.143 1.143v2.286c0 0.625 0.518 1.143 1.143 1.143h4.571v4.571c0 0.625 0.518 1.143 1.143 1.143h2.286c0.625 0 1.143-0.518 1.143-1.143v-4.571h4.571c0.625 0 1.143-0.518 1.143-1.143zM27.429 16c0 7.571-6.143 13.714-13.714 13.714s-13.714-6.143-13.714-13.714 6.143-13.714 13.714-13.714 13.714 6.143 13.714 13.714z"></path>
</symbol>
<symbol id="icon-delete" viewBox="0 0 27 32">
<title>delete</title>
<path d="M21.714 17.143v-2.286c0-0.625-0.518-1.143-1.143-1.143h-13.714c-0.625 0-1.143 0.518-1.143 1.143v2.286c0 0.625 0.518 1.143 1.143 1.143h13.714c0.625 0 1.143-0.518 1.143-1.143zM27.429 16c0 7.571-6.143 13.714-13.714 13.714s-13.714-6.143-13.714-13.714 6.143-13.714 13.714-13.714 13.714 6.143 13.714 13.714z"></path>
</symbol>
<symbol id="icon-clear" viewBox="0 0 27 32">
<title>clear</title>
<path d="M20.518 20.036c0-0.304-0.125-0.589-0.339-0.804l-3.232-3.232 3.232-3.232c0.214-0.214 0.339-0.5 0.339-0.804s-0.125-0.607-0.339-0.821l-1.607-1.607c-0.214-0.214-0.518-0.339-0.821-0.339s-0.589 0.125-0.804 0.339l-3.232 3.232-3.232-3.232c-0.214-0.214-0.5-0.339-0.804-0.339s-0.607 0.125-0.821 0.339l-1.607 1.607c-0.214 0.214-0.339 0.518-0.339 0.821s0.125 0.589 0.339 0.804l3.232 3.232-3.232 3.232c-0.214 0.214-0.339 0.5-0.339 0.804s0.125 0.607 0.339 0.821l1.607 1.607c0.214 0.214 0.518 0.339 0.821 0.339s0.589-0.125 0.804-0.339l3.232-3.232 3.232 3.232c0.214 0.214 0.5 0.339 0.804 0.339s0.607-0.125 0.821-0.339l1.607-1.607c0.214-0.214 0.339-0.518 0.339-0.821zM27.429 16c0 7.571-6.143 13.714-13.714 13.714s-13.714-6.143-13.714-13.714 6.143-13.714 13.714-13.714 13.714 6.143 13.714 13.714z"></path>
</symbol>
<symbol id="icon-help" viewBox="0 0 27 32">
<title>help</title>
<path d="M16 24.571v-3.429c0-0.321-0.25-0.571-0.571-0.571h-3.429c-0.321 0-0.571 0.25-0.571 0.571v3.429c0 0.321 0.25 0.571 0.571 0.571h3.429c0.321 0 0.571-0.25 0.571-0.571zM20.571 12.571c0-3.268-3.429-5.714-6.5-5.714-2.911 0-5.089 1.25-6.625 3.804-0.161 0.25-0.089 0.571 0.143 0.75l2.357 1.786c0.089 0.071 0.214 0.107 0.339 0.107 0.161 0 0.339-0.071 0.446-0.214 0.839-1.071 1.196-1.393 1.536-1.643 0.304-0.214 0.893-0.429 1.536-0.429 1.143 0 2.196 0.732 2.196 1.518 0 0.929-0.482 1.393-1.571 1.893-1.268 0.571-3 2.054-3 3.786v0.643c0 0.321 0.25 0.571 0.571 0.571h3.429c0.321 0 0.571-0.25 0.571-0.571v0c0-0.411 0.518-1.286 1.357-1.768 1.357-0.768 3.214-1.804 3.214-4.518zM27.429 16c0 7.571-6.143 13.714-13.714 13.714s-13.714-6.143-13.714-13.714 6.143-13.714 13.714-13.714 13.714 6.143 13.714 13.714z"></path>
</symbol>
<symbol id="icon-file" viewBox="0 0 27 32">
<title>file</title>
<path d="M26.214 8.5c0.179 0.179 0.339 0.393 0.5 0.643h-8.429v-8.429c0.25 0.161 0.464 0.321 0.643 0.5zM17.714 11.429h9.714v18.857c0 0.946-0.768 1.714-1.714 1.714h-24c-0.946 0-1.714-0.768-1.714-1.714v-28.571c0-0.946 0.768-1.714 1.714-1.714h14.286v9.714c0 0.946 0.768 1.714 1.714 1.714zM20.571 24.571v-1.143c0-0.321-0.25-0.571-0.571-0.571h-12.571c-0.321 0-0.571 0.25-0.571 0.571v1.143c0 0.321 0.25 0.571 0.571 0.571h12.571c0.321 0 0.571-0.25 0.571-0.571zM20.571 20v-1.143c0-0.321-0.25-0.571-0.571-0.571h-12.571c-0.321 0-0.571 0.25-0.571 0.571v1.143c0 0.321 0.25 0.571 0.571 0.571h12.571c0.321 0 0.571-0.25 0.571-0.571zM20.571 15.429v-1.143c0-0.321-0.25-0.571-0.571-0.571h-12.571c-0.321 0-0.571 0.25-0.571 0.571v1.143c0 0.321 0.25 0.571 0.571 0.571h12.571c0.321 0 0.571-0.25 0.571-0.571z"></path>
</symbol>
<symbol id="icon-renew" viewBox="0 0 32 32">
<title>renew</title>
<path d="M25 10.313c1.063 1.625 1.688 3.625 1.688 5.688 0 5.875-4.813 10.688-10.688 10.688v4l-5.313-5.375 5.313-5.313v4c4.438 0 8-3.563 8-8 0-1.375-0.375-2.625-0.938-3.75zM16 8c-4.438 0-8 3.563-8 8 0 1.375 0.313 2.625 0.938 3.75l-1.938 1.938c-1.063-1.625-1.688-3.625-1.688-5.688 0-5.875 4.813-10.688 10.688-10.688v-4l5.313 5.375-5.313 5.313v-4z"></path>
</symbol>
<symbol id="icon-portrait" viewBox="0 0 32 32">
<title>portrait</title>
<path d="M22.688 25.313v-18.625h-13.375v18.625h13.375zM22.688 1.375c1.438 0 2.625 1.188 2.625 2.625v24c0 1.438-1.188 2.688-2.625 2.688h-13.375c-1.438 0-2.625-1.25-2.625-2.688v-24c0-1.438 1.188-2.688 2.625-2.688z"></path>
</symbol>
<symbol id="icon-landscape" viewBox="0 0 32 32">
<title>landscape</title>
<path d="M25.313 9.313h-18.625v13.375h18.625v-13.375zM1.375 9.313c0-1.438 1.188-2.625 2.625-2.625h24c1.438 0 2.688 1.188 2.688 2.625v13.375c0 1.438-1.25 2.625-2.688 2.625h-24c-1.438 0-2.688-1.188-2.688-2.625z"></path>
</symbol>


</defs>
</svg>
